<svg width="1200" height="627" viewBox="0 0 1200 627" fill="none" xmlns="http://www.w3.org/2000/svg">
  <defs>
    <linearGradient id="pageBg" x1="0" y1="0" x2="1200" y2="627" gradientUnits="userSpaceOnUse">
      <stop stop-color="#F0FDFA"/>
      <stop offset="0.55" stop-color="#FFFFFF"/>
      <stop offset="1" stop-color="#ECFEFF"/>
    </linearGradient>
    <linearGradient id="leftPanel" x1="88" y1="86" x2="520" y2="540" gradientUnits="userSpaceOnUse">
      <stop stop-color="#047857"/>
      <stop offset="0.6" stop-color="#0F766E"/>
      <stop offset="1" stop-color="#0EA5E9"/>
    </linearGradient>
    <linearGradient id="pill" x1="0" y1="0" x2="1" y2="1">
      <stop stop-color="#14B8A6"/>
      <stop offset="1" stop-color="#22C55E"/>
    </linearGradient>
    <filter id="cardShadow" x="35" y="35" width="1130" height="557" filterUnits="userSpaceOnUse" color-interpolation-filters="sRGB">
      <feDropShadow dx="0" dy="16" stdDeviation="22" flood-color="#0F172A" flood-opacity="0.12"/>
    </filter>
  </defs>

  <rect width="1200" height="627" rx="32" fill="url(#pageBg)"/>
  <circle cx="1082" cy="92" r="84" fill="#CCFBF1" fill-opacity="0.9"/>
  <circle cx="109" cy="559" r="68" fill="#BAE6FD" fill-opacity="0.55"/>
  <circle cx="1050" cy="548" r="44" fill="#DCFCE7" fill-opacity="0.9"/>

  <g filter="url(#cardShadow)">
    <rect x="52" y="50" width="1096" height="527" rx="28" fill="#FFFFFF"/>
  </g>

  <rect x="88" y="86" width="430" height="455" rx="28" fill="url(#leftPanel)"/>

  <rect x="120" y="118" width="152" height="34" rx="17" fill="#FFFFFF" fill-opacity="0.15"/>
  <text x="141" y="140" fill="#ECFDF5" font-family="Arial, Helvetica, sans-serif" font-size="15" font-weight="700">PROJECT UPDATE</text>

  <text x="120" y="214" fill="#FFFFFF" font-family="Arial, Helvetica, sans-serif" font-size="52" font-weight="800">AI Student</text>
  <text x="120" y="270" fill="#FFFFFF" font-family="Arial, Helvetica, sans-serif" font-size="52" font-weight="800">Assistant</text>

  <text x="120" y="324" fill="#D1FAE5" font-family="Arial, Helvetica, sans-serif" font-size="22" font-weight="600">A full-stack web platform for placement prep,</text>
  <text x="120" y="355" fill="#D1FAE5" font-family="Arial, Helvetica, sans-serif" font-size="22" font-weight="600">coding support, resume building, company prep,</text>
  <text x="120" y="386" fill="#D1FAE5" font-family="Arial, Helvetica, sans-serif" font-size="22" font-weight="600">AI guidance, and exam preparation.</text>

  <rect x="120" y="438" width="160" height="70" rx="18" fill="#FFFFFF" fill-opacity="0.14"/>
  <text x="140" y="463" fill="#D1FAE5" font-family="Arial, Helvetica, sans-serif" font-size="12" font-weight="700">COMPLETED</text>
  <text x="140" y="488" fill="#FFFFFF" font-family="Arial, Helvetica, sans-serif" font-size="20" font-weight="800">AI Copilot</text>

  <rect x="298" y="438" width="184" height="70" rx="18" fill="#FFFFFF" fill-opacity="0.14"/>
  <text x="318" y="463" fill="#D1FAE5" font-family="Arial, Helvetica, sans-serif" font-size="12" font-weight="700">COMPLETED</text>
  <text x="318" y="488" fill="#FFFFFF" font-family="Arial, Helvetica, sans-serif" font-size="20" font-weight="800">Exam Prep Pages</text>

  <text x="566" y="122" fill="#0F172A" font-family="Arial, Helvetica, sans-serif" font-size="21" font-weight="800">Platform Highlights</text>
  <text x="566" y="150" fill="#475569" font-family="Arial, Helvetica, sans-serif" font-size="15" font-weight="500">Built to help students learn, practice, and prepare in one place.</text>

  <rect x="566" y="184" width="248" height="92" rx="20" fill="#F8FAFC" stroke="#E2E8F0"/>
  <rect x="586" y="204" width="40" height="40" rx="12" fill="#D1FAE5"/>
  <text x="641" y="224" fill="#0F172A" font-family="Arial, Helvetica, sans-serif" font-size="18" font-weight="800">AI Copilot</text>
  <text x="641" y="247" fill="#475569" font-family="Arial, Helvetica, sans-serif" font-size="14" font-weight="500">Smart assistance, chat support,</text>
  <text x="641" y="267" fill="#475569" font-family="Arial, Helvetica, sans-serif" font-size="14" font-weight="500">and productivity workflows</text>

  <rect x="834" y="184" width="248" height="92" rx="20" fill="#F8FAFC" stroke="#E2E8F0"/>
  <rect x="854" y="204" width="40" height="40" rx="12" fill="#DBEAFE"/>
  <text x="909" y="224" fill="#0F172A" font-family="Arial, Helvetica, sans-serif" font-size="18" font-weight="800">Exam Preparation</text>
  <text x="909" y="247" fill="#475569" font-family="Arial, Helvetica, sans-serif" font-size="14" font-weight="500">Prep flows and simulation-led</text>
  <text x="909" y="267" fill="#475569" font-family="Arial, Helvetica, sans-serif" font-size="14" font-weight="500">practice for better readiness</text>

  <rect x="566" y="296" width="248" height="92" rx="20" fill="#F8FAFC" stroke="#E2E8F0"/>
  <rect x="586" y="316" width="40" height="40" rx="12" fill="#EDE9FE"/>
  <text x="641" y="336" fill="#0F172A" font-family="Arial, Helvetica, sans-serif" font-size="18" font-weight="800">Resume Builder</text>
  <text x="641" y="359" fill="#475569" font-family="Arial, Helvetica, sans-serif" font-size="14" font-weight="500">AI-enhanced writing, resume</text>
  <text x="641" y="379" fill="#475569" font-family="Arial, Helvetica, sans-serif" font-size="14" font-weight="500">analysis, and live preview</text>

  <rect x="834" y="296" width="248" height="92" rx="20" fill="#F8FAFC" stroke="#E2E8F0"/>
  <rect x="854" y="316" width="40" height="40" rx="12" fill="#FCE7F3"/>
  <text x="909" y="336" fill="#0F172A" font-family="Arial, Helvetica, sans-serif" font-size="18" font-weight="800">Coding + DSA</text>
  <text x="909" y="359" fill="#475569" font-family="Arial, Helvetica, sans-serif" font-size="14" font-weight="500">Practice dashboards, coding</text>
  <text x="909" y="379" fill="#475569" font-family="Arial, Helvetica, sans-serif" font-size="14" font-weight="500">help, and problem solving</text>

  <rect x="566" y="408" width="248" height="92" rx="20" fill="#F8FAFC" stroke="#E2E8F0"/>
  <rect x="586" y="428" width="40" height="40" rx="12" fill="#FEF3C7"/>
  <text x="641" y="448" fill="#0F172A" font-family="Arial, Helvetica, sans-serif" font-size="18" font-weight="800">Company Prep</text>
  <text x="641" y="471" fill="#475569" font-family="Arial, Helvetica, sans-serif" font-size="14" font-weight="500">Targeted interview prep and</text>
  <text x="641" y="491" fill="#475569" font-family="Arial, Helvetica, sans-serif" font-size="14" font-weight="500">company-focused content</text>

  <rect x="834" y="408" width="248" height="92" rx="20" fill="#F8FAFC" stroke="#E2E8F0"/>
  <rect x="854" y="428" width="40" height="40" rx="12" fill="#DCFCE7"/>
  <text x="909" y="448" fill="#0F172A" font-family="Arial, Helvetica, sans-serif" font-size="18" font-weight="800">Full-Stack Product</text>
  <text x="909" y="471" fill="#475569" font-family="Arial, Helvetica, sans-serif" font-size="14" font-weight="500">React frontend, FastAPI</text>
  <text x="909" y="491" fill="#475569" font-family="Arial, Helvetica, sans-serif" font-size="14" font-weight="500">backend, auth, and AI APIs</text>

  <rect x="566" y="525" width="516" height="14" rx="7" fill="#E2E8F0"/>
  <rect x="566" y="525" width="516" height="14" rx="7" fill="url(#pill)"/>
  <text x="566" y="564" fill="#0F172A" font-family="Arial, Helvetica, sans-serif" font-size="18" font-weight="800">One platform for smarter student preparation</text>
</svg>