<svg xmlns="http://www.w3.org/2000/svg" width="32" height="32" viewBox="0 0 64 64">
  <defs>
    <linearGradient id="brainGradient" x1="0%" y1="0%" x2="100%" y2="100%">
      <stop offset="0%" style="stop-color:#2563eb;stop-opacity:1" />
      <stop offset="100%" style="stop-color:#3b82f6;stop-opacity:1" />
    </linearGradient>
  </defs>
  
  <rect width="64" height="64" fill="#ffffff" rx="8"/>
  
  <!-- Brain icon -->
  <g fill="url(#brainGradient)">
    <!-- Left hemisphere -->
    <path d="M24 12c-6.627 0-12 5.373-12 12v8c0 4 2 7 5 9 2 1.5 4 2 6 2 1 0 2-.5 3-1.5 1-1 1.5-2.5 1.5-4.5v-14c0-6.627-5.373-11-12-11z"/>
    
    <!-- Right hemisphere -->
    <path d="M40 12c6.627 0 12 5.373 12 12v8c0 4-2 7-5 9-2 1.5-4 2-6 2-1 0-2-.5-3-1.5-1-1-1.5-2.5-1.5-4.5v-14c0-6.627 5.373-11 12-11z"/>
    
    <!-- Center connector -->
    <ellipse cx="32" cy="28" rx="3" ry="16" fill="#1e40af" opacity="0.6"/>
    
    <!-- Left details -->
    <circle cx="20" cy="20" r="3" fill="#1e3a8a" opacity="0.4"/>
    <circle cx="18" cy="28" r="2.5" fill="#1e3a8a" opacity="0.4"/>
    <circle cx="22" cy="34" r="2" fill="#1e3a8a" opacity="0.4"/>
    
    <!-- Right details -->
    <circle cx="44" cy="20" r="3" fill="#1e3a8a" opacity="0.4"/>
    <circle cx="46" cy="28" r="2.5" fill="#1e3a8a" opacity="0.4"/>
    <circle cx="42" cy="34" r="2" fill="#1e3a8a" opacity="0.4"/>
  </g>
</svg>
